<svg width="140" height="140" viewBox="0 0 140 140" fill="none" xmlns="http://www.w3.org/2000/svg">
<g clip-path="url(#clip0_15_33)">
<path d="M136.595 52.9254L125.641 45.8621L83.3403 60.9006L75.4269 56.2165H55.4192V53.6065H64.0064V46.4959H39.7123V53.6065H48.3049V56.2165H25.956L11.2262 47.731L0 59.4458L23.8673 90.3492L24.0889 90.1749V94.1397H75.7066L125.416 54.1841L132.748 58.91L136.595 52.9254ZM9.36821 59.9398L12.5085 56.6687L24.0834 63.3434V78.9959L9.36821 59.9398ZM73.1984 87.0291H31.2031V63.3253H73.4817L82.5848 68.7195L106.59 60.1868L73.1984 87.0291ZM140 73.6688C140 76.6093 137.615 78.9977 134.671 78.9977C131.722 78.9977 129.335 76.6148 129.335 73.6688C129.335 70.7174 134.671 61.3746 134.671 61.3746C134.671 61.3746 140 70.721 140 73.6688Z" fill="#1D1D1B"/>
</g>
<defs>
<clipPath id="clip0_15_33">
<rect width="140" height="140" fill="white"/>
</clipPath>
</defs>
</svg>
