<svg width="140" height="140" viewBox="0 0 140 140" fill="none" xmlns="http://www.w3.org/2000/svg">
<g clip-path="url(#clip0_13_9)">
<path d="M93.9447 12.0191C92.2068 10.2811 90.3242 8.74853 88.3521 7.36767L73.4638 22.2582C72.9907 22.7288 72.3727 22.9653 71.7572 22.9653C71.1393 22.9653 70.5213 22.7288 70.0507 22.2582C69.1068 21.3168 69.1068 19.7888 70.0507 18.8452L84.1376 4.75826C82.6097 3.94725 81.0216 3.26885 79.4066 2.66073L56.3961 25.6713C55.9255 26.1443 55.3075 26.3784 54.6896 26.3784C54.0716 26.3784 53.4561 26.1443 52.9831 25.6713C52.0416 24.7298 52.0416 23.2019 52.9831 22.2582L74.164 1.07971C71.1661 0.391747 68.0812 0.000732422 64.929 0.000732422C53.968 0.000732422 43.666 4.26826 35.9151 12.0191L12.0211 35.9131C4.26999 43.664 0 53.9684 0 64.9294C0 67.208 0.226953 69.448 0.588983 71.6543L20.6573 51.5884C21.5988 50.6445 23.1268 50.6445 24.0704 51.5884C25.0118 52.5299 25.0118 54.0579 24.0704 55.0015L1.87304 77.1985C2.39695 78.8785 3.05812 80.5055 3.79448 82.101L15.5375 70.3604C16.479 69.4165 18.0069 69.4165 18.9505 70.3604C19.892 71.3043 19.892 72.8298 18.9505 73.7735L6.18405 86.5375C7.8326 89.1855 9.75896 91.6836 12.0206 93.943C12.4911 94.416 13.1091 94.6501 13.7271 94.6501C14.3426 94.6501 14.9606 94.416 15.4336 93.943L93.9447 15.4321C94.8884 14.4885 94.8884 12.963 93.9447 12.0191Z" fill="#1D1D1B"/>
<path d="M98.0025 18.0569C97.7997 18.3249 97.6041 18.5999 97.3581 18.8463L66.6112 49.5907C69.2011 48.7458 71.9601 48.2752 74.8277 48.2752C89.4672 48.2752 101.379 60.1872 101.379 74.8268C101.379 89.4663 89.4672 101.378 74.8277 101.378C60.1881 101.378 48.2761 89.4663 48.2761 74.8268C48.2761 71.9592 48.7467 69.2003 49.5916 66.6103L18.8472 97.3572C18.6033 97.6011 18.3282 97.8012 18.0578 98.0041C26.7233 122.818 50.2216 139.999 77.2416 139.999C111.848 139.999 140 111.847 140 77.2407C140 50.2207 122.819 26.7202 98.0025 18.0569ZM42.3983 110.669C41.4544 111.613 39.9267 111.613 38.9853 110.669C38.0414 109.728 38.0414 108.2 38.9853 107.256C39.9267 106.312 41.4547 106.312 42.3983 107.256C43.3419 108.2 43.3422 109.728 42.3983 110.669ZM50.9337 102.137C49.9897 103.078 48.4621 103.078 47.5182 102.137C46.5767 101.193 46.5767 99.665 47.5182 98.7211C48.4621 97.7796 49.9897 97.7796 50.9337 98.7211C51.8751 99.6647 51.8751 101.193 50.9337 102.137ZM74.8277 125.517C73.4952 125.517 72.4138 124.435 72.4138 123.103C72.4138 121.77 73.4952 120.689 74.8277 120.689C76.1601 120.689 77.2416 121.77 77.2416 123.103C77.2416 124.435 76.1601 125.517 74.8277 125.517ZM74.8277 113.448C73.4952 113.448 72.4138 112.366 72.4138 111.034C72.4138 109.701 73.4952 108.62 74.8277 108.62C76.1601 108.62 77.2416 109.701 77.2416 111.034C77.2416 112.366 76.1601 113.448 74.8277 113.448ZM107.257 38.9847C108.201 38.0408 109.729 38.0408 110.67 38.9847C111.614 39.9261 111.614 41.4541 110.67 42.3977C109.729 43.3416 108.201 43.3416 107.257 42.3977C106.313 41.4538 106.313 39.9258 107.257 38.9847ZM102.137 102.137C101.193 103.078 99.6656 103.078 98.7217 102.137C97.7802 101.193 97.7802 99.665 98.7217 98.7211C99.6656 97.7796 101.193 97.7796 102.137 98.7211C103.079 99.6647 103.079 101.193 102.137 102.137ZM102.137 50.9303C101.193 51.8742 99.6656 51.8742 98.7217 50.9303C97.7802 49.9889 97.7802 48.4609 98.7217 47.5173C99.6656 46.5758 101.193 46.5758 102.137 47.5173C103.079 48.4612 103.079 49.9891 102.137 50.9303ZM110.67 110.669C109.729 111.613 108.201 111.613 107.257 110.669C106.313 109.728 106.313 108.2 107.257 107.256C108.201 106.312 109.729 106.312 110.67 107.256C111.614 108.2 111.614 109.728 110.67 110.669ZM111.035 77.2407C109.702 77.2407 108.621 76.1592 108.621 74.8268C108.621 73.4943 109.702 72.4129 111.035 72.4129C112.367 72.4129 113.448 73.4943 113.448 74.8268C113.448 76.1592 112.367 77.2407 111.035 77.2407ZM123.104 77.2407C121.771 77.2407 120.69 76.1592 120.69 74.8268C120.69 73.4943 121.771 72.4129 123.104 72.4129C124.436 72.4129 125.517 73.4943 125.517 74.8268C125.517 76.1592 124.436 77.2407 123.104 77.2407Z" fill="#1D1D1B"/>
<path d="M74.8277 82.0683C78.8201 82.0683 82.0691 78.8193 82.0691 74.8269C82.0691 70.8344 78.8201 67.5854 74.8277 67.5854C70.8352 67.5854 67.5862 70.8344 67.5862 74.8269C67.5862 78.8193 70.8352 82.0683 74.8277 82.0683Z" fill="#1D1D1B"/>
<path d="M74.8277 96.5511C86.8072 96.5511 96.5517 86.8066 96.5517 74.827C96.5517 62.8475 86.8072 53.103 74.8277 53.103C62.8481 53.103 53.1036 62.8475 53.1036 74.827C53.1036 86.8066 62.8481 96.5511 74.8277 96.5511ZM74.8277 62.7578C81.4826 62.7578 86.8966 68.1719 86.8966 74.8268C86.8966 81.4817 81.4826 86.8957 74.8277 86.8957C68.1728 86.8957 62.7587 81.4817 62.7587 74.8268C62.7587 68.1719 68.1728 62.7578 74.8277 62.7578Z" fill="#1D1D1B"/>
</g>
<defs>
<clipPath id="clip0_13_9">
<rect width="140" height="140" fill="white"/>
</clipPath>
</defs>
</svg>
