<?xml version="1.0" encoding="UTF-8" standalone="no"?>
<svg
   version="1.0"
   width="512.000000pt"
   height="512.000000pt"
   viewBox="0 0 512.000000 512.000000"
   preserveAspectRatio="xMidYMid meet"
   id="svg17"
   sodipodi:docname="seals.svg"
   inkscape:version="1.3.2 (091e20e, 2023-11-25, custom)"
   xmlns:inkscape="http://www.inkscape.org/namespaces/inkscape"
   xmlns:sodipodi="http://sodipodi.sourceforge.net/DTD/sodipodi-0.dtd"
   xmlns="http://www.w3.org/2000/svg"
   xmlns:svg="http://www.w3.org/2000/svg">
  <defs
     id="defs17" />
  <sodipodi:namedview
     id="namedview17"
     pagecolor="#ffffff"
     bordercolor="#000000"
     borderopacity="0.25"
     inkscape:showpageshadow="2"
     inkscape:pageopacity="0.0"
     inkscape:pagecheckerboard="0"
     inkscape:deskcolor="#d1d1d1"
     inkscape:document-units="pt"
     inkscape:zoom="1.190918"
     inkscape:cx="340.91349"
     inkscape:cy="341.33333"
     inkscape:window-width="1920"
     inkscape:window-height="1009"
     inkscape:window-x="1912"
     inkscape:window-y="-8"
     inkscape:window-maximized="1"
     inkscape:current-layer="svg17" />
  <g
     transform="translate(0.000000,512.000000) scale(0.100000,-0.100000)"
     fill="#000000"
     stroke="none"
     id="g17"
     style="fill:#1e1e1e;fill-opacity:1">
    <path
       d="M3565 4971 c-16 -10 -70 -63 -120 -117 -49 -54 -192 -207 -316 -339 -298 -316 -306 -325 -325 -391 -16 -57 -14 -97 9 -162 11 -32 10 -35 -16 -54 -15 -11 -41 -40 -58 -64 -34 -49 -46 -52 -123 -29 -136 41 -179 16 -423 -248 -143 -155 -196 -220 -210 -255 -24 -63 -22 -145 6 -199 30 -61 28 -108 -8 -144 -37 -37 -79 -38 -154 -4 -85 39 -143 43 -208 13 -43 -20 -82 -55 -189 -169 -232 -247 -256 -274 -278 -322 -24 -52 -30 -142 -11 -195 10 -29 8 -33 -59 -102 l-69 -72 -43 22 c-59 30 -142 31 -202 1 -33 -15 -94 -73 -216 -204 -196 -210 -213 -231 -235 -273 -40 -79 -40 -102 13 -430 33 -200 57 -323 70 -349 18 -36 370 -458 541 -647 102 -113 91 -111 460 -101 299 9 306 9 346 33 43 27 281 269 304 310 9 18 15 87 19 240 l6 216 68 67 67 68 172 -21 c241 -28 239 -29 423 168 111 118 133 147 143 187 8 30 11 125 10 266 -2 245 2 263 63 274 18 3 102 -1 187 -9 191 -20 264 -20 299 -2 15 8 91 79 168 158 104 105 145 153 154 182 10 30 11 88 6 230 l-7 191 68 67 68 67 115 -9 c171 -14 275 -12 317 5 41 18 306 273 330 319 8 16 36 178 63 370 53 367 53 391 9 463 -11 18 -136 128 -277 244 -299 247 -326 272 -354 321 -22 38 -432 399 -491 431 -41 22 -74 22 -112 -2z m146 -222 c191 -64 191 -333 0 -397 -76 -26 -158 -4 -218 59 -40 42 -53 77 -53 139 0 61 10 88 52 135 57 66 140 90 219 64z m339 -465 c206 -58 376 -238 421 -445 18 -85 7 -249 -21 -324 -111 -291 -411 -450 -704 -375 -110 28 -190 74 -271 155 -127 127 -181 268 -172 450 6 123 31 200 99 301 140 210 403 306 648 238z m-930 -444 c138 -70 115 -276 -35 -320 -76 -22 -171 24 -201 97 -63 149 93 296 236 223z m-670 -325 c37 -19 60 -62 60 -113 0 -45 -26 -84 -70 -107 -107 -55 -221 67 -165 175 29 56 113 77 175 45z m714 -95 c112 -28 190 -73 277 -160 163 -161 214 -375 143 -600 -74 -234 -313 -410 -559 -410 -197 0 -405 118 -507 286 -63 103 -82 173 -83 304 0 146 23 227 98 337 142 208 392 305 631 243z m1286 -165 c36 -19 60 -62 60 -110 0 -95 -96 -155 -180 -112 -34 17 -70 74 -70 112 0 38 36 95 70 112 34 17 85 16 120 -2z m-2181 -330 c74 -38 105 -115 76 -191 -55 -145 -271 -119 -292 36 -16 114 115 208 216 155z m-463 -121 c55 -36 72 -128 33 -178 -59 -75 -161 -72 -209 7 -36 59 -19 134 39 170 34 21 105 21 137 1z m482 -249 c288 -66 492 -356 453 -645 -39 -290 -255 -498 -546 -525 -278 -26 -554 177 -620 456 -47 200 13 409 159 555 76 76 172 131 276 158 73 19 195 20 278 1z m-797 -50 c36 -19 69 -70 69 -108 0 -66 -58 -127 -122 -127 -78 0 -128 50 -128 127 1 95 96 152 181 108z m2030 -170 c61 -32 84 -105 54 -169 -40 -85 -177 -89 -220 -6 -58 112 56 231 166 175z m-2133 -232 c92 -68 105 -189 28 -267 -85 -84 -222 -62 -276 45 -45 87 -6 193 85 235 41 20 129 13 163 -13z m-734 -417 c108 -45 101 -204 -11 -235 -49 -14 -89 -4 -123 31 -67 66 -41 177 50 211 26 9 49 8 84 -7z m780 -2 c142 -36 295 -152 363 -274 59 -105 76 -173 76 -300 0 -98 -4 -126 -26 -188 -67 -191 -224 -337 -413 -386 -79 -20 -219 -20 -298 0 -255 66 -446 311 -446 574 0 259 182 499 435 571 78 23 227 24 309 3z m1186 -272 c14 -10 33 -35 44 -56 16 -32 17 -44 7 -76 -23 -76 -103 -116 -168 -83 -103 51 -104 173 -2 226 39 20 81 16 119 -11z m-882 -906 c34 -32 37 -39 37 -90 0 -49 -4 -59 -33 -88 -29 -29 -39 -33 -88 -33 -51 0 -58 3 -90 37 -28 31 -34 46 -34 80 0 77 50 127 128 128 35 0 49 -6 80 -34z"
       id="path1"
       style="fill:#1e1e1e;fill-opacity:1" />
    <path
       d="M3574 4626 c-27 -27 -34 -42 -34 -74 0 -117 155 -152 205 -46 35 73 -19 154 -103 154 -25 0 -43 -9 -68 -34z"
       id="path2"
       style="fill:#1e1e1e;fill-opacity:1" />
    <path
       d="M3819 4199 c-240 -35 -419 -244 -419 -489 1 -307 290 -542 592 -479 227 47 388 247 388 483 0 135 -43 243 -134 339 -109 113 -272 169 -427 146z"
       id="path3"
       style="fill:#1e1e1e;fill-opacity:1" />
    <path
       d="M2992 3737 c-58 -61 15 -158 84 -112 32 21 44 53 32 88 -18 51 -79 63 -116 24z"
       id="path4"
       style="fill:#1e1e1e;fill-opacity:1" />
    <path
       d="M2363 3414 c-3 -8 -1 -20 5 -26 16 -16 42 -2 42 22 0 24 -38 28 -47 4z"
       id="path5"
       style="fill:#1e1e1e;fill-opacity:1" />
    <path
       d="M2900 3324 c-221 -59 -370 -249 -370 -473 0 -237 146 -426 376 -486 276 -72 561 123 605 415 23 148 -29 298 -141 411 -125 127 -304 177 -470 133z"
       id="path6"
       style="fill:#1e1e1e;fill-opacity:1" />
    <path
       d="M4364 3155 c-4 -9 -2 -21 4 -27 15 -15 44 -1 40 19 -4 23 -36 29 -44 8z"
       id="path7"
       style="fill:#1e1e1e;fill-opacity:1" />
    <path
       d="M2165 2820 c-15 -16 -17 -26 -9 -48 10 -29 31 -37 69 -28 31 8 41 41 21 71 -20 31 -56 32 -81 5z"
       id="path8"
       style="fill:#1e1e1e;fill-opacity:1" />
    <path
       d="M1713 2704 c-3 -8 -1 -20 5 -26 16 -16 42 -2 42 22 0 24 -38 28 -47 4z"
       id="path9"
       style="fill:#1e1e1e;fill-opacity:1" />
    <path
       d="M2021 2454 c-82 -22 -150 -62 -216 -129 -99 -99 -145 -211 -145 -350 1 -243 180 -450 422 -486 331 -49 620 253 554 577 -21 104 -56 173 -127 248 -123 132 -315 187 -488 140z"
       id="path10"
       style="fill:#1e1e1e;fill-opacity:1" />
    <path
       d="M1417 2414 c-4 -4 -7 -16 -7 -26 0 -14 6 -19 23 -16 14 2 22 10 22 23 0 20 -25 32 -38 19z"
       id="path11"
       style="fill:#1e1e1e;fill-opacity:1" />
    <path
       d="M3447 2244 c-4 -4 -7 -16 -7 -26 0 -14 6 -19 23 -16 14 2 22 10 22 23 0 20 -25 32 -38 19z"
       id="path12"
       style="fill:#1e1e1e;fill-opacity:1" />
    <path
       d="M1242 2007 c-41 -43 -19 -109 40 -123 22 -5 33 0 58 24 36 37 38 65 5 97 -31 32 -74 33 -103 2z"
       id="path13"
       style="fill:#1e1e1e;fill-opacity:1" />
    <path
       d="M593 1593 c-17 -6 -17 -28 0 -41 17 -14 40 1 35 23 -3 20 -16 26 -35 18z"
       id="path14"
       style="fill:#1e1e1e;fill-opacity:1" />
    <path
       d="M1150 1586 c-118 -33 -245 -135 -302 -242 -132 -247 -34 -551 219 -676 81 -40 91 -43 189 -46 124 -5 207 16 300 76 159 103 248 306 215 490 -44 247 -242 414 -490 411 -47 0 -106 -6 -131 -13z"
       id="path15"
       style="fill:#1e1e1e;fill-opacity:1" />
    <path
       d="M2530 1324 c-11 -12 -10 -18 3 -32 16 -15 18 -15 34 0 13 14 14 20 3 32 -7 9 -16 16 -20 16 -4 0 -13 -7 -20 -16z"
       id="path16"
       style="fill:#1e1e1e;fill-opacity:1" />
    <path
       d="M1634 425 c-4 -9 -2 -21 4 -27 15 -15 44 -1 40 19 -4 23 -36 29 -44 8z"
       id="path17"
       style="fill:#1e1e1e;fill-opacity:1" />
  </g>
</svg>
