<svg width="140" height="140" viewBox="0 0 140 140" fill="none" xmlns="http://www.w3.org/2000/svg">
<path d="M74.6668 91H67.6668V86.3332C67.6668 84.9332 66.7335 84 65.3335 84H60.6668V72.3332C60.6668 70.9332 59.7335 70 58.3335 70H56V21C56 14.2332 52.9668 9.33324 49 9.33324H46.6668V4.66676C46.6668 2.1 44.5668 0 42 0H37.3333C34.7665 0 32.6665 2.1 32.6665 4.66676V9.33352H30.3333C26.3665 9.33352 23.3333 14.2335 23.3333 21.0003V70H21C19.6 70 18.6668 70.9332 18.6668 72.3332V84H14C12.6 84 11.6668 84.9332 11.6668 86.3332V91H4.66677C3.26677 91 2.33353 91.9332 2.33353 93.3332V102.666C2.33353 104.066 3.26677 105 4.66677 105H18.6668V126C18.6668 127.4 19.6 128.333 21 128.333H28V137.666C28 139.066 28.9333 139.999 30.3333 139.999C31.7333 139.999 32.6665 139.066 32.6665 137.666V128.333H46.6665V137.666C46.6665 139.066 47.5997 139.999 48.9997 139.999C50.3997 139.999 51.333 139.066 51.333 137.666V128.333H58.333C59.733 128.333 60.6662 127.4 60.6662 126V105H74.6662C76.0662 105 76.9995 104.067 76.9995 102.667V93.3335C77 91.9332 76.0668 91 74.6668 91ZM30.3333 14H35C36.4 14 37.3333 13.0668 37.3333 11.6668V4.66676H42V11.6668C42 13.0668 42.9333 14 44.3333 14H49C49.3774 14 50.6696 15.6797 51.1503 18.6668H28.1827C28.6639 15.68 29.9559 14 30.3333 14ZM28 23.3332H51.3333V70H28V23.3332ZM23.3333 74.6668H25.6665H53.6665H55.9997V84H23.3333V74.6668ZM56 123.667H23.3333V105H56V123.667ZM72.3333 100.333H58.3333H21H7.00001V95.6665H14C15.4 95.6665 16.3333 94.7332 16.3333 93.3332V88.6665H21H58.3333H63V93.3332C63 94.7332 63.9333 95.6665 65.3333 95.6665H72.3333V100.333Z" fill="#1D1D1B"/>
<path d="M128.333 32.6669C122.267 27.3001 114.333 24.7336 106.4 25.6669C93.8 27.0669 83.3 37.3336 81.9 50.1669C80.9668 57.8669 83.3 65.3336 87.9668 71.1669C91.4668 75.6001 93.3336 80.9669 93.3336 86.3336V119C93.3336 119.666 93.5466 120.224 93.9184 120.628C96.346 126.452 102.794 130.667 109.667 130.667C116.54 130.667 122.988 126.453 125.416 120.628C125.788 120.224 126.001 119.666 126.001 119V86.3333C126.001 86.2937 125.997 86.2557 125.996 86.2166C125.997 86.1775 126.001 86.1397 126.001 86.0998C126.001 80.4998 127.867 75.3666 131.367 71.1666C135.334 66.2666 137.667 59.9666 137.667 53.4333C137.667 45.5001 134.167 38.0333 128.333 32.6669ZM121.333 116.667H98V88.6669H121.333V116.667ZM109.667 126C105.7 126 101.967 124.133 99.6336 121.333H119.7C117.367 124.133 113.633 126 109.667 126ZM127.633 68.3669C123.9 72.8001 121.8 78.4001 121.333 84.0001H112V65.3333H116.667C118.067 65.3333 119 64.4001 119 63.0001C119 61.6001 118.067 60.6669 116.667 60.6669H112V56.0001H121.333C122.733 56.0001 123.667 55.0669 123.667 53.6669C123.667 52.2669 122.733 51.3336 121.333 51.3336H112V46.6669H123.667C125.067 46.6669 126 45.7336 126 44.3336C126 42.9336 125.067 42.0004 123.667 42.0004H95.6668C94.2668 42.0004 93.3336 42.9336 93.3336 44.3336C93.3336 45.7336 94.2668 46.6669 95.6668 46.6669H107.334V51.3336H98C96.6 51.3336 95.6668 52.2669 95.6668 53.6669C95.6668 55.0669 96.6 56.0001 98 56.0001H107.333V60.6669H102.667C101.267 60.6669 100.333 61.6001 100.333 63.0001C100.333 64.4001 101.267 65.3333 102.667 65.3333H107.333V84.0001H98C97.5333 78.4001 95.2 72.8001 91.7 68.3669C87.7333 63.4669 85.8668 57.1669 86.5668 50.8669C87.7336 40.1336 96.3668 31.5001 107.1 30.3336C113.867 29.6336 120.4 31.7336 125.3 36.1669C130.2 40.6001 133 47.1336 133 53.6669C133 59.0333 131.133 64.1669 127.633 68.3669Z" fill="#1D1D1B"/>
</svg>
