<svg width="42" height="42" viewBox="0 0 42 42" fill="none" xmlns="http://www.w3.org/2000/svg">
<path fill-rule="evenodd" clip-rule="evenodd" d="M42 21C42 32.598 32.598 42 21 42C9.40201 42 0 32.598 0 21C0 9.40201 9.40201 0 21 0C32.598 0 42 9.40201 42 21ZM23.625 13.125C23.625 14.5747 22.4498 15.75 21 15.75C19.5503 15.75 18.375 14.5747 18.375 13.125C18.375 11.6753 19.5503 10.5 21 10.5C22.4498 10.5 23.625 11.6753 23.625 13.125ZM21 18.375C19.5503 18.375 18.375 19.5503 18.375 21V28.875C18.375 30.3248 19.5503 31.5 21 31.5C22.4498 31.5 23.625 30.3248 23.625 28.875V21C23.625 19.5503 22.4498 18.375 21 18.375Z" fill="#CBA008"/>
</svg>
