<svg width="448" height="448" viewBox="0 0 448 448" fill="none" xmlns="http://www.w3.org/2000/svg">
<g clip-path="url(#clip0_2_25)">
<path d="M243.353 60.7976C242.23 59.2279 239.758 59.8202 239.469 61.7295L237.817 72.6512L224.16 78.0036L212.696 68.8529L214.309 58.1892C214.599 56.2651 212.377 54.9666 210.844 56.1732C206.473 59.6164 203.349 64.6607 202.451 70.5967C201.158 79.1464 204.852 87.3512 211.338 92.19L208.26 112.544L177.442 137.637L167.718 117.068C160.244 101.256 144.113 91.0385 126.623 91.0385C125.537 91.0385 124.898 91.0385 124.539 91.0385C124.233 91.0385 124.13 91.0385 124.13 91.0385C121.846 91.0385 108.194 91.0385 40.7348 91.0385C18.5588 91.0385 0.112015 109.079 1.46618e-05 131.256V256.735C-0.0472353 266.168 7.24589 273.853 16.6793 273.901C16.7081 273.901 16.737 273.901 16.7668 273.901C26.159 273.901 34.2169 266.311 34.265 256.907V131.426V131.424C34.2746 129.556 36.0045 128.048 37.8735 128.054C39.7416 128.059 41.2528 129.575 41.2528 131.443C41.2536 173.119 41.2606 409.497 41.2606 418.546C41.2606 429.866 50.4368 439.042 61.7566 439.042C73.0765 439.042 82.2526 429.866 82.2526 418.546V254.721H91.1024V418.547C91.1024 429.867 100.279 439.044 111.598 439.044C122.918 439.044 132.094 429.867 132.094 418.547C132.094 418.547 131.773 176.789 131.728 132.816C131.727 131.56 132.597 130.471 133.823 130.197C135.048 129.921 136.3 130.532 136.837 131.668L155.879 171.951C160.602 181.941 173.491 184.909 182.105 177.895L202.14 161.582C203.425 165.155 206.579 167.929 210.598 168.537C216.43 169.419 221.874 165.406 222.756 159.574L225.304 142.721L232.188 137.116C239.503 131.16 240.605 120.402 234.648 113.088C233.404 111.559 231.941 110.318 230.351 109.339L232.46 95.3855C239.975 92.7202 246.023 86.0493 247.333 77.3841C248.251 71.3064 246.666 65.4307 243.353 60.7976Z" fill="#004BA8"/>
<path d="M86.6714 8.95737C67.1204 8.95737 51.2733 24.8062 51.2733 44.3572C51.2733 63.9319 67.1659 79.7554 86.6714 79.7554C106.209 79.7554 122.07 63.9074 122.07 44.3564C122.07 24.8062 106.222 8.95737 86.6714 8.95737Z" fill="#004BA8"/>
<path d="M437.336 200.957H407.956C402.068 200.957 397.294 205.731 397.294 211.619V224.818L395.098 227.132L379.007 140.867C377.957 135.235 373.041 131.152 367.313 131.152H257.257C256.276 140.965 251.279 149.736 243.966 155.761C242.857 157.994 242.98 159.892 242.98 161.54C242.98 166.849 247.283 171.152 252.592 171.152H283.283C288.592 171.152 292.894 166.849 292.894 161.54C292.894 159.758 293.075 157.562 291.462 154.943H357.431L372.218 234.224H354.792C352.885 214.284 336.061 198.631 315.63 198.631C295.199 198.631 278.375 214.284 276.468 234.224H163.656L169.862 200.956C162.325 200.653 155.341 198.083 149.52 193.717V287.784C153.93 281.077 161.515 276.645 170.139 276.645C183.762 276.645 194.806 287.696 194.806 301.328C194.806 314.96 183.762 326.011 170.139 326.011C161.515 326.011 153.93 321.581 149.52 314.872V408.351C154.677 414.376 162.333 418.2 170.885 418.2C186.414 418.2 199.004 405.611 199.004 390.081V364.844H224.411V374.375C224.411 379.699 228.728 384.016 234.052 384.016H301.823C307.147 384.016 311.463 379.699 311.463 374.375V364.844H336.871V390.081C336.871 405.611 349.46 418.2 364.99 418.2C380.519 418.2 393.109 405.611 393.109 390.081V364.844H398.588C408.992 364.844 417.428 356.408 417.428 346.003V285.544C417.428 270.473 410.797 256.96 400.304 247.734L411.263 236.178H437.338C443.226 236.178 448 231.404 448 225.516V211.619C447.998 205.73 443.225 200.957 437.336 200.957ZM295.676 345.34H240.199C235.242 345.34 231.224 341.321 231.224 336.363C231.224 331.405 235.243 327.387 240.199 327.387H295.676C300.633 327.387 304.652 331.405 304.652 336.363C304.651 341.321 300.632 345.34 295.676 345.34ZM310.495 311.141H225.379C220.422 311.141 216.404 307.122 216.404 302.165C216.404 297.207 220.423 293.188 225.379 293.188H310.495C315.452 293.188 319.47 297.207 319.47 302.165C319.47 307.122 315.452 311.141 310.495 311.141ZM296.502 234.225C298.268 225.257 306.151 218.46 315.63 218.46C325.109 218.46 332.99 225.258 334.757 234.225H296.502ZM365.736 326.012C352.112 326.012 341.069 314.962 341.069 301.329C341.069 287.697 352.112 276.646 365.736 276.646C379.36 276.646 390.403 287.697 390.403 301.329C390.403 314.961 379.36 326.012 365.736 326.012Z" fill="#004BA8"/>
</g>
<defs>
<clipPath id="clip0_2_25">
<rect width="448" height="448" fill="white"/>
</clipPath>
</defs>
</svg>
