<svg width="64" height="52" viewBox="0 0 64 52" fill="none" xmlns="http://www.w3.org/2000/svg">
<path d="M34.5007 28.668V41.6055C34.5007 42.368 34.1978 43.0993 33.6587 43.6385C33.1195 44.1776 32.3882 44.4805 31.6257 44.4805C30.8632 44.4805 30.132 44.1776 29.5928 43.6385C29.0536 43.0993 28.7507 42.368 28.7507 41.6055V28.668C28.7507 27.9055 29.0536 27.1743 29.5928 26.6351C30.132 26.0959 30.8632 25.793 31.6257 25.793C32.3882 25.793 33.1195 26.0959 33.6587 26.6351C34.1978 27.1743 34.5007 27.9055 34.5007 28.668ZM31.6257 22.918C32.1944 22.918 32.7502 22.7494 33.223 22.4335C33.6958 22.1176 34.0643 21.6686 34.2819 21.1432C34.4995 20.6179 34.5564 20.0398 34.4455 19.4821C34.3346 18.9244 34.0607 18.4122 33.6587 18.0101C33.2566 17.608 32.7443 17.3342 32.1866 17.2233C31.6289 17.1123 31.0509 17.1693 30.5255 17.3869C30.0002 17.6045 29.5512 17.973 29.2353 18.4458C28.9194 18.9186 28.7507 19.4744 28.7507 20.043C28.7507 20.8055 29.0536 21.5368 29.5928 22.076C30.132 22.6151 30.8632 22.918 31.6257 22.918ZM0.360119 50.1874C0.11136 49.7384 -0.0126336 49.2309 0.00101689 48.7178C0.0146674 48.2046 0.165464 47.7045 0.437744 47.2693L29.1877 1.26928C29.4634 0.877179 29.8293 0.557161 30.2546 0.336244C30.68 0.115328 31.1522 0 31.6315 0C32.1108 0 32.583 0.115328 33.0084 0.336244C33.4337 0.557161 33.7996 0.877179 34.0752 1.26928L62.8252 47.2693C63.0978 47.7053 63.2484 48.2064 63.2613 48.7204C63.2743 49.2345 63.1492 49.7426 62.8991 50.1918C62.6489 50.641 62.2829 51.0149 61.839 51.2746C61.3952 51.5342 60.8899 51.6701 60.3757 51.668H2.87574C2.36243 51.6683 1.85842 51.5311 1.41605 51.2707C0.973672 51.0104 0.609074 50.6363 0.360119 50.1874ZM8.05074 45.918H55.2007L31.6257 8.21815L8.05074 45.918Z" fill="#CBA008"/>
</svg>
